<?xml version="1.0" standalone="no"?>
<!DOCTYPE svg PUBLIC "-//W3C//DTD SVG 20010904//EN"
 "http://www.w3.org/TR/2001/REC-SVG-20010904/DTD/svg10.dtd">
<svg version="1.0" xmlns="http://www.w3.org/2000/svg"
 width="800.000000pt" height="800.000000pt" viewBox="0 0 800.000000 800.000000"
 preserveAspectRatio="xMidYMid meet">
<metadata>
Created by potrace 1.16, written by Peter Selinger 2001-2019
</metadata>
<g transform="translate(0.000000,800.000000) scale(0.100000,-0.100000)"
fill="#61DAFB" stroke="none">
<path d="M758 6025 c-4 -4 -33 -9 -65 -10 -32 -2 -69 -6 -83 -10 -14 -4 -31
-7 -37 -7 -7 -1 -13 -4 -13 -8 0 -4 -6 -7 -12 -7 -21 -1 -43 -7 -48 -15 -3 -3
-12 -8 -20 -10 -8 -2 -21 -9 -28 -16 -8 -7 -17 -11 -20 -9 -4 2 -45 -35 -92
-82 -47 -47 -83 -87 -80 -88 3 -1 -4 -12 -15 -25 -11 -14 -21 -31 -23 -39 -2
-7 -7 -16 -12 -19 -5 -3 -10 -12 -12 -20 -2 -8 -9 -21 -16 -28 -7 -8 -10 -18
-7 -23 4 -5 1 -9 -5 -9 -6 0 -9 -4 -5 -9 3 -5 -2 -17 -11 -25 -8 -9 -13 -16
-9 -16 3 0 -1 -13 -10 -30 -9 -16 -13 -30 -10 -30 3 0 1 -9 -5 -21 -6 -11 -13
-29 -16 -40 -2 -10 -6 -28 -9 -39 -3 -11 -7 -29 -10 -40 -3 -11 -8 -30 -11
-42 -3 -13 -7 -34 -9 -48 -2 -14 -6 -36 -10 -50 -3 -14 -8 -45 -11 -70 -2 -25
-7 -74 -12 -110 -9 -83 -9 -393 0 -490 15 -149 17 -165 23 -190 4 -14 8 -36
10 -50 2 -14 6 -36 10 -50 4 -14 8 -36 9 -50 1 -14 8 -35 15 -48 6 -12 9 -27
6 -32 -3 -5 1 -23 10 -40 8 -16 13 -30 10 -30 -3 0 1 -13 10 -30 9 -16 13 -30
10 -30 -3 0 1 -13 10 -30 9 -16 13 -30 10 -30 -3 0 1 -13 9 -29 9 -16 12 -31
9 -35 -4 -3 0 -6 7 -6 7 0 11 -3 7 -6 -3 -4 3 -24 14 -45 11 -22 16 -39 12
-39 -5 0 -3 -4 4 -8 6 -4 13 -14 15 -22 2 -8 9 -21 16 -28 7 -8 10 -17 7 -22
-3 -5 -1 -10 4 -12 5 -1 11 -10 13 -18 2 -8 9 -21 16 -28 7 -8 10 -18 7 -23
-4 -5 -2 -9 4 -9 5 0 13 -9 16 -20 3 -11 13 -26 20 -34 8 -8 16 -20 17 -27 2
-7 11 -23 22 -35 10 -12 17 -25 16 -29 -1 -4 8 -14 19 -24 11 -9 21 -24 23
-32 2 -8 11 -21 20 -30 9 -8 18 -22 20 -29 2 -8 20 -31 40 -51 21 -20 39 -42
40 -50 4 -16 321 -337 329 -333 4 2 31 -20 61 -49 30 -28 61 -53 68 -55 7 -2
25 -15 39 -30 14 -15 33 -28 40 -30 8 -2 23 -12 32 -23 10 -11 20 -20 24 -19
4 1 18 -8 32 -19 13 -12 35 -27 49 -33 13 -6 24 -14 24 -18 0 -4 14 -13 30
-20 17 -7 30 -17 30 -22 0 -5 4 -7 9 -3 5 3 20 -5 33 -17 13 -13 30 -24 38
-26 8 -2 17 -8 18 -13 2 -5 7 -7 12 -4 4 2 17 -4 28 -13 12 -10 39 -27 62 -37
22 -10 40 -22 40 -27 0 -5 4 -7 9 -3 5 3 15 0 23 -7 7 -7 20 -14 28 -16 8 -2
18 -9 22 -15 4 -7 8 -9 8 -4 0 4 28 -7 61 -24 34 -17 71 -32 82 -35 11 -2 24
-9 29 -16 4 -7 8 -10 8 -5 0 4 17 -1 39 -12 21 -11 41 -17 45 -14 3 4 6 0 6
-7 0 -7 3 -10 6 -7 4 3 15 2 26 -4 11 -6 29 -12 40 -14 12 -3 24 -8 27 -12 6
-8 27 -15 49 -16 6 0 12 -3 12 -7 0 -4 7 -7 15 -8 8 -1 22 -3 30 -4 8 -1 15
-4 15 -8 0 -4 7 -7 15 -8 8 -1 22 -3 30 -4 8 -1 15 -4 15 -8 0 -4 6 -7 13 -8
6 0 22 -3 35 -6 12 -3 31 -8 42 -10 11 -3 25 -8 30 -11 5 -3 19 -8 30 -11 11
-2 29 -6 40 -9 11 -3 29 -7 40 -10 11 -3 29 -7 40 -10 11 -3 29 -7 40 -10 11
-3 30 -8 43 -11 12 -3 33 -7 47 -9 14 -2 36 -6 50 -10 14 -4 36 -8 50 -10 14
-2 39 -6 55 -10 17 -4 44 -8 60 -10 17 -2 44 -7 60 -10 17 -4 45 -9 63 -11 17
-2 49 -6 70 -9 20 -3 62 -8 92 -10 30 -3 69 -8 85 -10 192 -26 896 -26 1005 0
14 4 39 8 55 10 17 2 44 6 60 10 17 4 41 8 55 10 14 2 36 6 50 10 14 4 37 8
51 9 14 1 31 6 37 10 7 4 21 9 32 12 11 2 29 6 40 9 11 3 29 7 40 10 11 3 29
7 40 10 11 3 29 7 40 10 11 3 29 7 40 10 11 3 29 7 39 9 11 3 29 10 40 16 12
6 21 8 21 5 0 -3 14 1 30 10 17 9 30 13 30 10 0 -3 14 1 30 10 17 9 30 13 30
10 0 -3 14 1 30 10 17 9 30 13 30 10 0 -4 7 1 16 9 8 9 19 14 24 11 5 -3 10
-1 12 4 1 5 10 11 18 13 8 2 21 9 28 16 8 7 18 10 23 7 5 -4 9 -2 9 4 0 5 9
13 20 16 11 3 26 13 34 20 8 8 20 16 27 17 7 2 28 18 48 35 19 18 36 31 39 29
2 -2 28 20 59 50 31 29 60 51 65 48 4 -3 7 0 6 8 -2 7 3 12 9 11 7 -2 12 3 10
10 -1 6 4 11 10 10 7 -2 12 3 10 10 -1 6 4 11 11 9 8 -1 11 2 8 6 -3 5 19 34
48 65 30 31 52 57 50 59 -2 3 11 20 29 39 17 20 33 41 35 48 1 7 9 19 17 27 7
8 17 23 20 34 3 11 11 20 16 20 6 0 8 4 4 9 -3 5 0 15 7 23 7 7 14 20 16 28 2
8 9 18 15 22 7 4 9 8 4 8 -4 0 1 17 12 39 11 21 17 41 14 45 -4 3 0 6 7 6 7 0
11 3 7 6 -3 4 0 19 9 35 8 16 12 29 9 29 -3 0 -1 9 5 21 11 20 21 53 22 77 1
6 5 12 9 12 4 0 7 10 7 23 0 12 3 33 7 47 4 14 8 36 10 50 2 14 6 36 9 50 26
108 26 552 0 660 -3 14 -7 41 -9 60 -1 19 -6 46 -9 60 -4 14 -9 42 -11 63 -3
20 -9 46 -15 57 -6 11 -8 25 -5 30 3 5 -1 23 -10 39 -8 16 -12 37 -9 45 3 9 2
16 -3 16 -5 0 -10 6 -11 13 -1 23 -11 56 -22 76 -6 12 -8 21 -5 21 3 0 -1 14
-10 30 -9 17 -13 30 -10 30 4 0 -1 7 -10 16 -9 9 -13 24 -10 35 4 11 2 19 -4
19 -6 0 -11 5 -11 10 0 6 14 9 30 8 17 -1 30 -5 30 -8 0 -4 7 -7 15 -8 8 -1
22 -3 30 -4 8 -1 15 -5 15 -10 0 -5 4 -7 9 -3 5 3 17 -2 25 -11 9 -8 16 -13
16 -9 0 3 9 1 21 -5 11 -6 30 -13 42 -16 12 -2 23 -8 25 -14 2 -6 7 -8 12 -5
5 3 14 0 22 -7 7 -7 20 -14 28 -16 8 -2 17 -8 18 -13 2 -5 7 -7 12 -4 5 3 14
0 22 -7 7 -7 20 -14 28 -16 8 -2 17 -8 18 -13 2 -5 7 -7 12 -4 5 3 14 0 22 -7
7 -7 19 -14 27 -16 7 -1 19 -9 27 -17 8 -7 23 -17 34 -20 11 -3 20 -11 20 -16
0 -6 4 -8 9 -4 5 3 20 -5 33 -17 13 -13 30 -24 38 -26 7 -2 21 -11 29 -20 9
-9 22 -18 29 -20 7 -1 25 -14 38 -27 14 -14 29 -25 34 -25 5 0 24 -15 43 -32
18 -18 39 -34 46 -36 16 -3 293 -283 287 -289 -3 -3 6 -16 20 -30 13 -13 24
-28 24 -33 0 -5 7 -15 15 -23 8 -8 16 -21 17 -28 2 -7 13 -24 26 -37 12 -13
20 -27 17 -32 -3 -4 -1 -10 4 -12 5 -1 11 -10 13 -18 2 -8 9 -21 16 -28 7 -8
10 -18 7 -23 -4 -5 -1 -9 6 -9 7 0 10 -3 6 -6 -3 -4 3 -24 14 -45 11 -22 17
-39 14 -39 -3 0 -1 -9 5 -21 7 -11 13 -30 15 -42 6 -33 13 -69 20 -97 6 -27 7
-296 0 -345 -2 -16 -6 -42 -9 -57 -3 -16 -8 -38 -10 -50 -5 -22 -9 -40 -21
-88 -3 -11 -7 -29 -9 -39 -3 -11 -9 -28 -15 -39 -6 -11 -7 -22 -4 -26 3 -3 0
-6 -7 -6 -7 0 -11 -3 -7 -6 3 -4 -2 -23 -13 -44 -11 -21 -16 -40 -13 -44 4 -3
1 -6 -6 -6 -7 0 -10 -4 -6 -9 3 -5 0 -15 -7 -23 -7 -7 -14 -19 -16 -27 -1 -7
-9 -19 -17 -27 -7 -8 -17 -23 -20 -34 -3 -11 -11 -20 -16 -20 -6 0 -8 -4 -5
-9 3 -4 -3 -19 -14 -31 -11 -12 -22 -31 -25 -41 -4 -11 -11 -19 -16 -19 -6 0
-8 -4 -4 -9 3 -5 -1 -15 -8 -23 -13 -13 -17 -32 -19 -96 -1 -21 -4 -28 -10
-20 -18 30 -7 -85 13 -123 11 -23 16 -38 10 -34 -22 13 -10 -6 22 -38 32 -31
47 -39 75 -40 6 0 12 -4 12 -8 0 -4 10 -7 23 -7 12 0 33 -3 47 -7 73 -21 301
-21 380 0 14 4 31 7 38 7 6 1 12 4 12 8 0 4 6 7 13 7 20 1 42 7 47 15 3 3 12
8 20 10 8 2 21 9 28 16 8 7 17 11 20 9 8 -4 166 153 169 166 0 5 9 19 19 31
11 12 20 29 22 37 2 7 7 16 12 19 5 3 10 12 12 20 2 8 9 21 16 28 7 8 10 18 7
23 -4 5 -1 9 5 9 6 0 9 4 5 9 -3 5 2 17 11 25 8 9 13 16 9 16 -3 0 1 14 10 30
9 17 13 30 10 30 -3 0 -1 9 5 21 6 11 13 29 16 40 2 10 6 28 9 39 3 11 7 29
10 40 3 11 8 30 11 43 3 12 7 33 9 47 2 14 6 36 10 50 3 14 8 45 11 70 2 25 7
74 12 110 9 83 9 393 0 490 -15 149 -17 165 -23 190 -4 14 -8 36 -10 50 -2 14
-6 36 -10 50 -4 14 -8 36 -9 50 -1 14 -8 35 -15 48 -6 12 -9 27 -6 32 3 5 -1
23 -10 40 -8 16 -13 30 -10 30 3 0 -1 14 -10 30 -9 17 -13 30 -10 30 3 0 -1
14 -10 30 -9 17 -13 30 -10 30 3 0 -1 13 -9 29 -9 16 -12 31 -9 35 4 3 0 6 -7
6 -7 0 -11 3 -7 6 3 4 -3 24 -14 45 -11 22 -16 39 -12 39 5 0 3 4 -4 8 -6 4
-13 14 -15 22 -2 8 -9 21 -16 28 -7 8 -10 17 -7 22 3 5 1 10 -4 12 -5 1 -11
10 -13 18 -2 8 -9 21 -16 28 -7 8 -10 18 -7 23 4 5 2 9 -4 9 -5 0 -13 9 -16
20 -3 11 -13 26 -20 34 -8 8 -16 20 -17 27 -2 7 -11 22 -20 33 -10 12 -17 25
-17 29 0 5 -9 16 -20 26 -11 9 -21 24 -23 32 -2 8 -11 21 -20 30 -9 8 -18 22
-20 29 -2 8 -20 31 -40 51 -21 20 -39 42 -40 50 -4 16 -321 337 -329 333 -4
-2 -31 20 -61 49 -30 28 -61 53 -68 55 -7 2 -25 15 -39 30 -14 15 -33 28 -40
30 -8 2 -23 12 -32 23 -10 11 -20 19 -22 17 -3 -2 -17 7 -32 20 -14 13 -37 28
-51 34 -13 6 -24 14 -24 18 0 4 -13 13 -30 20 -16 7 -30 17 -30 22 0 5 -4 7
-9 3 -5 -3 -20 5 -33 17 -13 13 -30 24 -38 26 -8 2 -17 8 -18 13 -2 5 -7 7
-12 4 -4 -2 -17 4 -28 13 -12 10 -39 27 -62 37 -22 10 -40 22 -40 27 0 5 -4 7
-9 3 -5 -3 -15 0 -23 7 -7 7 -20 14 -28 16 -8 2 -18 9 -22 15 -4 7 -8 9 -8 4
0 -4 -28 7 -61 24 -34 17 -71 32 -82 35 -11 2 -24 9 -29 16 -4 7 -8 10 -8 5 0
-4 -17 1 -39 12 -21 11 -41 17 -45 14 -3 -4 -6 0 -6 7 0 7 -3 10 -6 7 -4 -3
-15 -2 -26 4 -11 6 -29 12 -40 14 -12 3 -24 8 -27 12 -6 8 -27 15 -48 16 -7 0
-13 3 -13 7 0 4 -7 7 -15 8 -8 1 -22 3 -30 4 -8 1 -15 4 -15 8 0 4 -7 7 -15 8
-8 1 -22 3 -30 4 -8 1 -15 4 -15 8 0 4 -6 7 -12 8 -7 0 -23 3 -35 6 -13 3 -32
8 -43 10 -11 3 -25 8 -30 11 -5 3 -19 8 -30 11 -11 2 -29 6 -40 9 -11 3 -29 7
-40 10 -11 3 -29 7 -40 10 -11 3 -29 7 -40 10 -11 3 -30 8 -42 11 -13 3 -34 7
-48 9 -14 2 -36 6 -50 10 -14 4 -36 8 -50 10 -14 2 -38 6 -55 10 -16 4 -43 8
-60 10 -16 2 -43 7 -60 10 -16 4 -46 9 -65 11 -19 2 -51 7 -70 9 -19 3 -60 8
-90 10 -30 3 -68 8 -85 10 -192 26 -896 26 -1005 0 -14 -4 -38 -8 -55 -10 -16
-2 -43 -6 -60 -10 -16 -4 -41 -8 -55 -10 -14 -2 -36 -6 -50 -10 -14 -4 -37 -8
-51 -9 -14 -1 -31 -6 -37 -10 -7 -4 -21 -9 -32 -12 -11 -2 -29 -6 -40 -9 -11
-3 -29 -7 -40 -10 -11 -3 -29 -7 -40 -10 -11 -3 -29 -7 -40 -10 -11 -3 -29 -7
-40 -10 -11 -3 -29 -7 -39 -9 -11 -3 -29 -10 -40 -16 -12 -6 -21 -8 -21 -5 0
3 -13 -1 -30 -10 -16 -9 -30 -13 -30 -10 0 3 -13 -1 -30 -10 -16 -9 -30 -13
-30 -10 0 3 -13 -1 -30 -10 -16 -9 -30 -13 -30 -10 0 4 -7 -1 -16 -9 -8 -9
-19 -14 -24 -11 -5 3 -10 1 -12 -4 -1 -5 -10 -11 -18 -13 -8 -2 -21 -9 -28
-16 -8 -7 -18 -10 -23 -7 -5 4 -9 2 -9 -4 0 -5 -9 -13 -20 -16 -11 -3 -26 -13
-34 -20 -8 -8 -20 -16 -27 -17 -7 -2 -28 -18 -48 -35 -19 -18 -36 -31 -39 -29
-2 2 -28 -20 -59 -50 -31 -29 -60 -51 -65 -48 -4 3 -7 0 -6 -8 2 -7 -3 -12
-10 -10 -6 1 -11 -4 -10 -10 2 -7 -3 -12 -10 -10 -6 1 -11 -4 -10 -10 2 -7 -3
-12 -10 -10 -8 1 -11 -2 -8 -6 3 -5 -19 -34 -48 -65 -30 -31 -52 -57 -50 -59
2 -3 -11 -20 -29 -39 -17 -20 -33 -41 -35 -48 -1 -7 -9 -19 -17 -27 -7 -8 -17
-23 -20 -34 -3 -11 -11 -20 -16 -20 -6 0 -8 -4 -4 -9 3 -5 0 -15 -7 -23 -7 -7
-14 -20 -16 -28 -2 -8 -9 -18 -15 -22 -7 -4 -9 -8 -4 -8 4 0 -1 -17 -12 -39
-11 -21 -17 -41 -14 -45 4 -3 0 -6 -7 -6 -7 0 -11 -3 -7 -6 3 -4 0 -19 -9 -35
-8 -16 -12 -29 -9 -29 3 0 1 -9 -5 -21 -11 -20 -21 -53 -22 -76 -1 -7 -5 -13
-9 -13 -4 0 -7 -10 -7 -22 0 -13 -3 -34 -7 -48 -4 -14 -8 -36 -10 -50 -2 -14
-6 -36 -9 -50 -26 -108 -26 -552 0 -660 3 -14 7 -41 9 -60 1 -19 6 -46 9 -60
4 -14 9 -42 11 -63 3 -20 9 -46 15 -57 6 -11 8 -25 5 -30 -3 -5 1 -23 10 -39
8 -16 12 -37 9 -45 -3 -9 -2 -16 3 -16 5 0 10 -6 11 -12 1 -24 11 -57 22 -77
6 -12 8 -21 5 -21 -3 0 1 -13 10 -30 9 -16 13 -30 10 -30 -4 0 1 -7 10 -16 9
-9 13 -24 10 -35 -4 -11 -2 -19 4 -19 6 0 11 -5 11 -10 0 -6 -13 -9 -30 -8
-16 1 -30 5 -30 8 0 4 -7 7 -15 8 -8 1 -22 3 -30 4 -8 1 -15 5 -15 10 0 5 -4
7 -9 3 -5 -3 -17 2 -25 11 -9 8 -16 13 -16 9 0 -3 -9 -1 -21 5 -11 6 -30 13
-42 16 -12 2 -23 8 -25 14 -2 6 -7 8 -12 5 -5 -3 -14 0 -22 7 -7 7 -20 14 -28
16 -8 2 -17 8 -18 13 -2 5 -7 7 -12 4 -5 -3 -14 0 -22 7 -7 7 -20 14 -28 16
-8 2 -17 8 -18 13 -2 5 -7 7 -12 4 -5 -3 -14 0 -22 7 -7 7 -19 14 -27 16 -7 1
-19 9 -27 17 -8 7 -23 17 -34 20 -11 3 -20 11 -20 16 0 6 -4 8 -9 4 -5 -3 -20
5 -33 17 -13 13 -30 24 -38 26 -7 2 -21 11 -29 20 -9 9 -22 18 -29 20 -7 1
-25 14 -38 27 -14 14 -29 25 -34 25 -5 0 -24 15 -43 33 -18 17 -39 33 -46 35
-16 3 -293 283 -287 289 3 3 -6 16 -20 30 -13 13 -24 28 -24 33 0 5 -7 15 -15
23 -8 8 -16 21 -17 28 -2 7 -13 24 -26 37 -12 13 -20 27 -17 32 3 4 1 10 -4
12 -5 1 -11 10 -13 18 -2 8 -9 21 -16 28 -7 8 -10 18 -7 23 4 5 1 9 -6 9 -7 0
-10 3 -6 6 3 4 -3 24 -14 45 -11 22 -17 39 -14 39 3 0 1 9 -5 21 -7 11 -14 32
-16 45 -6 34 -12 65 -19 94 -6 27 -7 296 0 345 2 17 6 42 9 58 3 15 8 37 10
50 5 21 9 39 21 87 3 11 7 29 9 39 3 11 9 28 15 39 6 11 7 22 4 26 -3 3 0 6 7
6 7 0 11 3 7 6 -3 4 2 23 13 44 11 21 16 40 13 44 -4 3 -1 6 6 6 7 0 10 4 6 9
-3 5 0 15 7 23 7 7 14 19 16 27 1 7 9 19 17 27 7 8 17 23 20 34 3 11 11 20 16
20 6 0 8 4 5 9 -3 4 3 19 14 31 11 12 22 31 25 41 4 11 11 19 16 19 6 0 8 4 4
9 -3 5 1 15 8 23 13 13 17 32 19 96 1 21 4 28 10 20 18 -30 7 85 -13 123 -11
23 -16 38 -10 34 22 -13 10 6 -22 38 -32 31 -47 39 -74 40 -7 0 -13 4 -13 8 0
4 -10 7 -22 7 -13 0 -34 3 -48 7 -14 4 -54 9 -90 11 -36 3 -81 7 -100 10 -19
3 -38 3 -42 -1z m3787 -195 c298 -15 565 -48 790 -99 22 -5 60 -14 85 -19 39
-9 99 -25 235 -61 39 -11 184 -59 210 -70 11 -5 36 -14 55 -21 19 -7 45 -16
58 -21 12 -5 32 -13 45 -18 102 -39 362 -170 487 -244 417 -249 753 -565 965
-909 57 -90 175 -325 175 -346 0 -6 9 -32 21 -59 32 -75 86 -299 105 -435 22
-162 22 -483 0 -628 -41 -270 -121 -467 -244 -601 -116 -126 -239 -161 -458
-129 -134 19 -133 18 -74 96 134 178 234 424 282 694 18 102 17 423 -1 515
-82 416 -365 772 -861 1084 -133 84 -341 187 -495 246 -38 15 -79 31 -90 35
-63 27 -301 97 -405 120 -30 7 -65 16 -78 21 -30 12 -82 12 -82 0 0 -5 4 -11
8 -13 4 -1 23 -23 42 -48 19 -25 38 -47 41 -50 10 -9 69 -98 69 -105 0 -4 13
-25 28 -48 26 -38 75 -135 115 -227 21 -48 68 -187 77 -230 73 -338 88 -512
66 -730 -23 -226 -52 -334 -142 -515 -120 -244 -346 -475 -586 -599 -88 -46
-220 -96 -303 -115 -102 -25 -198 -49 -235 -61 -14 -5 -50 -14 -80 -20 -30 -7
-73 -16 -95 -21 -222 -48 -518 -55 -960 -24 -304 21 -718 97 -970 179 -27 9
-66 21 -85 27 -34 10 -124 42 -165 59 -11 4 -40 16 -65 25 -130 48 -451 209
-532 266 -14 11 -28 19 -31 19 -15 0 -354 243 -377 269 -3 3 -39 35 -80 71
-98 84 -199 187 -278 280 -136 161 -298 429 -361 595 -13 33 -27 69 -31 80
-13 32 -22 58 -30 90 -37 139 -43 164 -71 320 -18 95 -18 555 -1 650 36 197
62 287 122 410 105 217 263 325 454 312 99 -8 187 -17 204 -23 15 -5 6 -25
-33 -69 -15 -16 -41 -55 -59 -86 -42 -70 -136 -263 -136 -278 0 -6 -4 -19 -10
-29 -19 -34 -53 -174 -80 -328 -16 -93 -13 -395 4 -484 20 -99 48 -193 76
-255 48 -108 55 -121 79 -160 38 -62 75 -119 81 -125 3 -3 21 -25 40 -50 176
-229 454 -448 775 -611 83 -41 177 -86 210 -99 33 -13 65 -27 70 -31 10 -7
275 -96 350 -117 22 -7 65 -19 95 -27 30 -9 75 -20 100 -25 25 -5 69 -14 99
-20 29 -6 55 -10 57 -8 2 2 -30 48 -70 103 -41 54 -80 110 -87 124 -7 14 -21
38 -30 52 -27 39 -95 180 -129 264 -47 117 -94 319 -119 510 -14 102 -14 388
-1 474 20 120 41 217 60 266 32 86 86 206 104 235 12 19 28 47 35 62 8 15 21
36 30 45 9 10 27 34 41 53 35 52 187 206 252 256 50 39 213 144 223 144 3 0
30 12 61 26 61 28 158 62 214 74 35 8 174 44 285 75 224 61 552 84 940 65z"/>
<path d="M3595 5050 c-96 -15 -186 -38 -264 -69 -262 -106 -446 -327 -507
-611 -17 -77 -19 -334 -4 -412 26 -133 34 -168 61 -249 45 -134 125 -281 197
-361 75 -83 329 -232 492 -288 19 -7 44 -16 55 -20 11 -4 40 -13 65 -20 25 -7
56 -16 70 -20 14 -4 59 -13 100 -20 41 -6 99 -15 129 -21 85 -14 375 -11 462
6 208 39 362 118 495 251 91 91 137 165 195 309 8 22 23 87 39 179 48 279 -82
752 -261 951 -51 56 -196 152 -324 214 -189 91 -317 131 -550 170 -84 15 -378
22 -450 11z"/>
</g>
</svg>
